<svg xmlns="http://www.w3.org/2000/svg" width="24" height="24" fill="none" viewBox="0 0 24 24">
  <g clip-path="url(#a)">
    <path fill="#F2F2F2" d="M22.68.32C21.8-.56 20.74-1 19.5-1h-15C3.26-1 2.2-.56 1.32.32.44 1.2 0 2.26 0 3.5v15c0 1.24.44 2.3 1.32 3.18C2.2 22.56 3.26 23 4.5 23h15c1.24 0 2.3-.44 3.18-1.32.88-.88 1.32-1.94 1.32-3.18v-15c0-1.24-.44-2.3-1.32-3.18Zm-4.32 7.914c.01.094.015.235.015.422a9.42 9.42 0 0 1-.383 2.633 9.421 9.421 0 0 1-1.172 2.531 9.848 9.848 0 0 1-1.882 2.141c-.73.62-1.604 1.115-2.625 1.484A9.554 9.554 0 0 1 9.032 18a9.21 9.21 0 0 1-5.031-1.468c.25.03.51.046.78.046 1.511 0 2.87-.468 4.08-1.406a3.113 3.113 0 0 1-1.9-.656 3.335 3.335 0 0 1-1.163-1.625c.27.041.473.062.609.062.229 0 .495-.042.797-.125a3.283 3.283 0 0 1-1.922-1.133A3.12 3.12 0 0 1 4.5 9.61v-.032c.551.26 1.072.396 1.562.407C5.114 9.349 4.64 8.438 4.64 7.25c0-.583.151-1.135.453-1.656a9.3 9.3 0 0 0 3 2.422 9.29 9.29 0 0 0 3.781 1.015 3.015 3.015 0 0 1-.078-.75c0-.906.32-1.68.961-2.32A3.161 3.161 0 0 1 15.078 5c.959 0 1.756.344 2.391 1.031a6.526 6.526 0 0 0 2.094-.797c-.26.802-.745 1.412-1.453 1.828a6.955 6.955 0 0 0 1.89-.53 6.38 6.38 0 0 1-1.64 1.702Z"/>
  </g>
  <defs>
    <clipPath id="a">
      <path fill="#fff" d="M0 0h24v24H0z"/>
    </clipPath>
  </defs>
</svg>
